# xmcd
#
# Track frame offsets:
#	150
#	23657
#	41406
#	59604
#	78777
#	95564
#	116157
#	132394
#	146716
#
# Disc length: 2184 seconds
# Revision: 0
# Processed by: cddbd v1.5.2PL0 Copyright (c) Steve Scherf et al.
# Submitted via: dBpowerAMP V12.0
#
DISCID=79088609
DTITLE=Various Artist - Austin Sound Exchange, Vol. 2
DYEAR=2014
DGENRE=Americana
TTITLE0=Chris Beall - Dug Down Deep
TTITLE1=The Reqliques - Lilac and Honey
TTITLE2=Chris Beall - A Year of Decembers
TTITLE3=Clayton Ring - Love Will Remain
TTITLE4=The Reliques - Leaving Montgomery
TTITLE5=Clayton Ring - Stay
TTITLE6=Amy Hooper - King of Nothin'
TTITLE7=Garrett James - Your Ghost
TTITLE8=Chris Beall - Travel Light
EXTD=
EXTT0=
EXTT1=
EXTT2=
EXTT3=
EXTT4=
EXTT5=
EXTT6=
EXTT7=
EXTT8=
PLAYORDER=
